# xmcd
#
# Track frame offsets:
#	150
#	11810
#	25065
#	35612
#	53672
#	64887
#	79715
#	90370
#	102487
#	115572
#	129825
#	141900
#	151770
#	163100
#	176750
#	192762
#	206355
#
# Disc length: 2904 seconds
#
# Revision: 0
# Processed by: cddbd v1.4PL0 Copyright (c) Steve Scherf et al.
# Submitted via: audiograbber 1.80
#
DISCID=d40b5611
DTITLE=Bo Weavil Blues Band - Early Recordings
DYEAR=1900
DGENRE=
TTITLE0=So loaded
TTITLE1=Hold me
TTITLE2=Fever Boogie
TTITLE3=Big City Blues
TTITLE4=Drinkin' Both Night and Day
TTITLE5=Looser
TTITLE6=I'm Over You Baby
TTITLE7=Short Fat Lucy
TTITLE8=I'm Doing Fine
TTITLE9=Lost My Way
TTITLE10=My Little Lady
TTITLE11=Low Down Women
TTITLE12=They Call Me The Hook
TTITLE13=I Wonder Where The Women Be
TTITLE14=Big City Blues (as a one man band)
TTITLE15=That's Enough
TTITLE16=The Way You Do
EXTD=1998
EXTT0=
EXTT1=
EXTT2=
EXTT3=
EXTT4=
EXTT5=
EXTT6=
EXTT7=
EXTT8=
EXTT9=
EXTT10=
EXTT11=
EXTT12=
EXTT13=
EXTT14=
EXTT15=
EXTT16=
PLAYORDER=
